<?xml version="1.0" encoding="iso-8859-1"?>
<!-- Uploaded to: SVG Repo, www.svgrepo.com, Generator: SVG Repo Mixer Tools -->
<!DOCTYPE svg PUBLIC "-//W3C//DTD SVG 1.1//EN" "http://www.w3.org/Graphics/SVG/1.1/DTD/svg11.dtd">
<svg fill="blue" version="1.1" id="Capa_1" xmlns="http://www.w3.org/2000/svg" xmlns:xlink="http://www.w3.org/1999/xlink" 
	 width="800px" height="800px" viewBox="0 0 45.73 45.73" xml:space="preserve"
	>
<g>
	<g>
		<path d="M21.368,21.057c-2.149-2.135-5.626-2.128-7.77,0.015c-2.148,2.151-2.148,5.636,0,7.786
			c0.106,0.105,5.207,5.184,7.086,7.053c0.379,0.377,0.991,0.377,1.37,0c1.879-1.869,6.98-6.946,7.086-7.053
			c2.15-2.149,2.15-5.635,0-7.786C26.995,18.929,23.521,18.922,21.368,21.057z"/>
		<path d="M39.74,17.128c-0.308,0.182-0.631,0.338-0.979,0.437c-0.367,0.104-0.747,0.155-1.128,0.155
			c-0.294,0-0.582-0.041-0.865-0.101l3.414,15.229c0.209,0.928,0.043,1.883-0.467,2.686c-0.511,0.805-1.302,1.363-2.23,1.57
			l-24.675,5.533c-0.918,0.206-1.893,0.035-2.686-0.468c-0.804-0.511-1.362-1.302-1.569-2.229L4.023,19.724
			c-0.43-1.917,0.78-3.826,2.697-4.256l20.833-4.671c-0.054-0.178-0.101-0.358-0.128-0.544c-0.137-0.908,0.039-1.824,0.473-2.616
			L6.062,12.533c-3.535,0.792-5.767,4.313-4.974,7.849L5.62,40.597c0.384,1.714,1.412,3.173,2.894,4.112
			c1.054,0.669,2.271,1.021,3.52,1.021c0.481,0,0.965-0.054,1.436-0.158l24.675-5.533c1.713-0.385,3.173-1.412,4.113-2.895
			c0.938-1.481,1.245-3.242,0.86-4.955L39.74,17.128z"/>
		<path d="M41.04,1.58C39.42,0.536,37.711,0,36.327,0c-1.13,0-2.044,0.358-2.515,1.088c-0.583,0.907-0.364,2.196,0.456,3.487
			l-3.616,4.321c-0.211,0.253-0.304,0.584-0.255,0.911c0.051,0.324,0.237,0.614,0.514,0.792l1.411,0.909l-2.19,4.901
			c-0.199,0.447-0.1,0.989,0.288,1.331c0.219,0.194,0.489,0.289,0.761,0.289c0.317,0,0.636-0.132,0.863-0.389l3.557-4.022
			l1.411,0.911c0.187,0.12,0.402,0.182,0.622,0.182c0.104,0,0.209-0.014,0.312-0.043c0.317-0.089,0.579-0.312,0.725-0.607
			l2.438-5.078c0.294,0.041,0.578,0.062,0.852,0.062c1.13,0,2.043-0.357,2.514-1.088C45.521,6.332,43.983,3.477,41.04,1.58z"/>
	</g>
</g>
</svg>